<?xml version="1.0" encoding="UTF-8"?>
<svg width="263px" height="132px" viewBox="0 0 263 132" version="1.1" xmlns="http://www.w3.org/2000/svg" xmlns:xlink="http://www.w3.org/1999/xlink">
    <!-- Generator: Sketch 52.3 (67297) - http://www.bohemiancoding.com/sketch -->
    <title>logo svg</title>
    <desc>Created with Sketch.</desc>
    <g id="Page-1" stroke="none" stroke-width="1" fill="none" fill-rule="evenodd">
        <g id="GVB-Landing-Page" transform="translate(-588.000000, -165.000000)" fill="#FFFFFF" fill-rule="nonzero">
            <g id="header">
                <path d="M599,165 L851,165 L841,269 L589,269 L599,165 Z M631.08,237.6 L637,189.72 L623.96,189.72 L616.76,248 L649.4,248 L650.68,237.6 L631.08,237.6 Z M708.96,215.12 C708.96,211.493315 708.393339,208.093349 707.26,204.92 C706.126661,201.746651 704.500011,198.986678 702.38,196.64 C700.259989,194.293322 697.673349,192.446673 694.62,191.1 C691.566651,189.753327 688.133352,189.08 684.32,189.08 C681.226651,189.08 678.293347,189.473329 675.52,190.26 C672.746653,191.046671 670.173345,192.153326 667.8,193.58 C665.426655,195.006674 663.28001,196.733323 661.36,198.76 C659.43999,200.786677 657.806673,203.039988 656.46,205.52 C655.113327,208.000012 654.073337,210.686652 653.34,213.58 C652.606663,216.473348 652.24,219.493318 652.24,222.64 C652.24,226.293352 652.806661,229.699984 653.94,232.86 C655.073339,236.020016 656.706656,238.766655 658.84,241.1 C660.973344,243.433345 663.566651,245.273327 666.62,246.62 C669.673349,247.966673 673.119981,248.64 676.96,248.64 C680.026682,248.64 682.946653,248.246671 685.72,247.46 C688.493347,246.673329 691.066655,245.566674 693.44,244.14 C695.813345,242.713326 697.953324,240.986677 699.86,238.96 C701.766676,236.933323 703.393327,234.680012 704.74,232.2 C706.086673,229.719988 707.126663,227.040014 707.86,224.16 C708.593337,221.279986 708.96,218.266682 708.96,215.12 Z M695.6,215.44 C695.6,218.85335 695.200004,221.959986 694.4,224.76 C693.599996,227.560014 692.460007,229.95999 690.98,231.96 C689.499993,233.96001 687.700011,235.506661 685.58,236.6 C683.459989,237.693339 681.06668,238.24 678.4,238.24 C676.346656,238.24 674.520008,237.860004 672.92,237.1 C671.319992,236.339996 669.980005,235.266674 668.9,233.88 C667.819995,232.493326 667.000003,230.826676 666.44,228.88 C665.879997,226.933324 665.6,224.760012 665.6,222.36 C665.6,218.94665 665.993329,215.833347 666.78,213.02 C667.566671,210.206653 668.699993,207.80001 670.18,205.8 C671.660007,203.79999 673.453323,202.246672 675.56,201.14 C677.666677,200.033328 680.05332,199.48 682.72,199.48 C684.746677,199.48 686.559992,199.859996 688.16,200.62 C689.760008,201.380004 691.113328,202.459993 692.22,203.86 C693.326672,205.260007 694.166664,206.93999 694.74,208.9 C695.313336,210.86001 695.6,213.039988 695.6,215.44 Z M738.2,238.6 C736.253324,238.6 734.480008,238.22667 732.88,237.48 C731.279992,236.73333 729.906672,235.660007 728.76,234.26 C727.613328,232.859993 726.72667,231.14001 726.1,229.1 C725.47333,227.05999 725.16,224.760013 725.16,222.2 C725.16,218.893317 725.579996,215.86668 726.42,213.12 C727.260004,210.37332 728.439992,208.02001 729.96,206.06 C731.480008,204.09999 733.293323,202.580005 735.4,201.5 C737.506677,200.419995 739.826654,199.88 742.36,199.88 C743.533339,199.88 744.593329,199.959999 745.54,200.12 C746.486671,200.280001 747.379996,200.513332 748.22,200.82 C749.060004,201.126668 749.893329,201.513331 750.72,201.98 C751.546671,202.446669 752.439995,202.986664 753.4,203.6 C754.14667,204.080002 754.879996,204.32 755.6,204.32 C756.800006,204.32 757.879995,203.733339 758.84,202.56 L763.08,197.32 C762.119995,196.253328 761.01334,195.220005 759.76,194.22 C758.50666,193.219995 757.080008,192.340004 755.48,191.58 C753.879992,190.819996 752.073343,190.213336 750.06,189.76 C748.046657,189.306664 745.800012,189.08 743.32,189.08 C740.359985,189.08 737.533347,189.459996 734.84,190.22 C732.146653,190.980004 729.633345,192.06666 727.3,193.48 C724.966655,194.89334 722.846676,196.59999 720.94,198.6 C719.033324,200.60001 717.400007,202.839988 716.04,205.32 C714.679993,207.800012 713.633337,210.499985 712.9,213.42 C712.166663,216.340015 711.8,219.413317 711.8,222.64 C711.8,226.346685 712.379994,229.786651 713.54,232.96 C714.700006,236.133349 716.339989,238.879988 718.46,241.2 C720.580011,243.520012 723.126652,245.339993 726.1,246.66 C729.073348,247.980007 732.359982,248.64 735.96,248.64 C738.146678,248.64 740.206657,248.520001 742.14,248.28 C744.073343,248.039999 745.913325,247.666669 747.66,247.16 C749.406675,246.653331 751.079992,246.006671 752.68,245.22 C754.280008,244.433329 755.826659,243.493339 757.32,242.4 L760.36,218.04 L740.92,218.04 L740.04,225.56 C740.04,226.14667 740.239998,226.613332 740.64,226.96 C741.040002,227.306668 741.61333,227.48 742.36,227.48 L747.32,227.48 L746.2,237 C745.026661,237.506669 743.800006,237.899999 742.52,238.18 C741.239994,238.460001 739.800008,238.6 738.2,238.6 Z M821.76,215.12 C821.76,211.493315 821.193339,208.093349 820.06,204.92 C818.926661,201.746651 817.300011,198.986678 815.18,196.64 C813.059989,194.293322 810.473349,192.446673 807.42,191.1 C804.366651,189.753327 800.933352,189.08 797.12,189.08 C794.026651,189.08 791.093347,189.473329 788.32,190.26 C785.546653,191.046671 782.973345,192.153326 780.6,193.58 C778.226655,195.006674 776.08001,196.733323 774.16,198.76 C772.23999,200.786677 770.606673,203.039988 769.26,205.52 C767.913327,208.000012 766.873337,210.686652 766.14,213.58 C765.406663,216.473348 765.04,219.493318 765.04,222.64 C765.04,226.293352 765.606661,229.699984 766.74,232.86 C767.873339,236.020016 769.506656,238.766655 771.64,241.1 C773.773344,243.433345 776.366651,245.273327 779.42,246.62 C782.473349,247.966673 785.919981,248.64 789.76,248.64 C792.826682,248.64 795.746653,248.246671 798.52,247.46 C801.293347,246.673329 803.866655,245.566674 806.24,244.14 C808.613345,242.713326 810.753324,240.986677 812.66,238.96 C814.566676,236.933323 816.193327,234.680012 817.54,232.2 C818.886673,229.719988 819.926663,227.040014 820.66,224.16 C821.393337,221.279986 821.76,218.266682 821.76,215.12 Z M808.4,215.44 C808.4,218.85335 808.000004,221.959986 807.2,224.76 C806.399996,227.560014 805.260007,229.95999 803.78,231.96 C802.299993,233.96001 800.500011,235.506661 798.38,236.6 C796.259989,237.693339 793.86668,238.24 791.2,238.24 C789.146656,238.24 787.320008,237.860004 785.72,237.1 C784.119992,236.339996 782.780005,235.266674 781.7,233.88 C780.619995,232.493326 779.800003,230.826676 779.24,228.88 C778.679997,226.933324 778.4,224.760012 778.4,222.36 C778.4,218.94665 778.793329,215.833347 779.58,213.02 C780.366671,210.206653 781.499993,207.80001 782.98,205.8 C784.460007,203.79999 786.253323,202.246672 788.36,201.14 C790.466677,200.033328 792.85332,199.48 795.52,199.48 C797.546677,199.48 799.359992,199.859996 800.96,200.62 C802.560008,201.380004 803.913328,202.459993 805.02,203.86 C806.126672,205.260007 806.966664,206.93999 807.54,208.9 C808.113336,210.86001 808.4,213.039988 808.4,215.44 Z M589,281 L747,281 L745,297 L588,297 L589,281 Z" id="logo-svg"></path>
            </g>
        </g>
    </g>
</svg>